PathFileType	4	(X/Y/Z)	C:/Users/beibeiliu/ov580/test_trc/User2\sequence.9_training_dense_left.trc
DataRate	CameraRate	NumFrames	NumMarkers	Units	OrigDataRate	OrigDataStartFrame	OrigNumFrames
120	120	16	19	mm	120	45	353
Frame#	Time	ThumbCMC			ThumbMCP			ThumbIP			ThumbTip			IndexMCP			IndexPIP			IndexTip			MiddleMCP			MiddlePIP			MiddleTip			RingMCP			RingPIP			RingTip			PinkyMCP			PinkyPIP			PinkyTip			BackHand1			BackHand2			BackHand3	
		X0	Y0	Z0	X1	Y1	Z1	X2	Y2	Z2	X3	Y3	Z3	X4	Y4	Z4	X5	Y5	Z5	X6	Y6	Z6	X7	Y7	Z7	X8	Y8	Z8	X9	Y9	Z9	X10	Y10	Z10	X11	Y11	Z11	X12	Y12	Z12	X13	Y13	Z13	X14	Y14	Z14	X15	Y15	Z15	X16	Y16	Z16	X17	Y17	Z17	X18	Y18	Z18	
44	0.366667	-206.048	62.0813	76.4598	-219.334	66.1785	44.397	-229.282	54.9275	9.33634	-228.155	47.1822	-11.4206	-226.508	5.86614	14.733	-228.533	-9.2174	-6.08591	-228.039	-30.1334	-28.8674	-217.883	-14.9657	16.6952	-216.829	-31.5149	-7.83222	-222.128	-49.9125	-33.1755	-203.023	-31.8435	23.627	-203.223	-42.0629	5.01043	-204.38	-57.6028	-22.0188	-185.834	-31.5256	44.7602	-186.969	-46.2173	18.0768	-194.221	-54.7912	-3.7649	-203.166	-4.53	80.9709	-203.23	9.96361	108.909	-222.561	29.7472	80.7169	
45	0.375	-215.009	63.5423	74.698	-229.385	64.1556	45.0173	-237.975	55.3761	15.9479	-243.214	50.5054	-6.41158	-243.786	5.25818	19.7486	-248.779	-11.0744	-2.57804	-251.424	-30.8071	-21.8687	-236.004	-17.7579	19.5918	-238.017	-37.5596	-4.05407	-246.071	-53.2084	-23.281	-223.212	-28.6688	29.8662	-223.945	-42.5563	10.3991	-230.169	-60.9736	-16.6968	-203.973	-35.9947	45.4489	-205.965	-49.3294	25.1151	-214.969	-58.4109	6.38192	-212.579	-6.23172	86.1731	-211.424	12.2901	114.177	-229.068	32.0296	86.3871	
46	0.383333	-221.474	64.3733	74.1036	-235.041	68.0979	46.9006	-247.683	56.7406	18.3249	-254.504	46.6242	-5.12638	-256.781	8.53574	25.5094	-263.94	-8.40936	7.18494	-269.161	-31.0148	-12.1245	-252.945	-14.5417	24.788	-260.103	-33.6351	1.16839	-268.146	-51.8515	-15.6793	-236.656	-32.0245	37.9988	-244.46	-42.115	15.4826	-251.159	-60.229	-5.83707	-220.596	-36.7417	50.1105	-225.869	-45.9136	32.216	-233.951	-58.0893	10.9338	-225.384	-2.17105	86.4022	-215.918	13.2101	116.103	-235.425	35.6305	87.701	
47	0.391667	-217.794	66.7318	74.5703	-231.122	65.4817	48.6937	-251.356	61.209	17.1011	-257.796	57.8144	-3.83075	-265.621	12.2687	26.6258	-274.565	0.224814	9.37582	-286.847	-20.1241	-9.36328	-262.379	-9.19079	32.0057	-273.207	-28.7586	9.28014	-287.842	-44.151	-11.5023	-251.943	-28.7285	38.4236	-259.936	-38.0261	19.7735	-271.978	-54.976	-1.73289	-232.768	-32.1079	55.7568	-242.842	-46.5944	34.0429	-254.202	-56.2479	12.2887	-229.826	0.712321	90.9775	-224.578	15.7834	115.448	-238.677	39.4034	89.7738	
48	0.4	-208.431	65.55	77.9719	-222.124	68.0098	50.0001	-242.612	67.4072	17.9327	-250.67	59.0778	-2.99205	-265.15	21.3635	28.2707	-278.202	6.68857	10.43	-292.115	-9.553	-7.36547	-266.702	-3.05923	32.8301	-281.903	-15.7737	7.10886	-298.878	-30.8963	-13.6126	-258.321	-17.5297	41.4924	-271.118	-34.7386	21.4553	-285.188	-42.5576	-4.98191	-244.807	-32.2602	55.9646	-256.492	-41.1806	33.4808	-266.756	-47.9959	17.0996	-236.159	2.37138	93.5555	-226.594	15.5937	116.092	-235.091	39.6386	92.6215	
49	0.408333	-197.563	64.3824	74.9806	-207.117	67.9444	50.7941	-223.548	69.1198	19.0928	-233.439	66.3578	-5.08549	-257.964	29.0486	24.2516	-272.809	19.1432	4.0106	-287.58	7.49894	-12.9492	-265.081	8.01793	28.0958	-278.675	-4.61286	5.33405	-299.744	-18.6529	-15.2989	-262.056	-11.055	39.6344	-274.296	-20.5972	16.9991	-288.181	-30.8674	-4.18214	-245.534	-21.3052	58.1949	-258.98	-29.805	34.0189	-276.078	-39.229	15.923	-239.512	8.25287	90.1822	-224.249	21.3429	115.919	-227.811	44.8723	89.1628	
50	0.416667	-177.31	57.1531	80.4387	-186.767	65.0209	50.1603	-198.148	67.097	18.7875	-205.349	68.5871	-6.77165	-237.753	39.9028	21.9321	-257.946	29.0023	1.38292	-272.1	24.1735	-18.1354	-253.303	17.9504	23.5319	-268.581	9.37407	-0.926483	-286.982	1.74683	-20.3536	-255.533	1.6824	36.1582	-270.233	-8.66521	11.8906	-283.56	-13.522	-14.0137	-248.814	-15.7261	51.287	-260.107	-22.4032	32.0223	-271.95	-21.5852	11.8901	-234.028	14.5177	89.4139	-223.707	22.2491	116.131	-216.385	46.9176	87.9264	
51	0.425	-159.516	47.0056	83.982	-160.123	58.4487	52.9388	-170.813	59.2868	20.4264	-177.765	61.002	-7.67971	-219.825	43.0854	19.2496	-234.934	39.5186	-3.37351	-253.457	35.3934	-24.76	-236.686	27.977	19.6617	-247.972	24.9697	-4.89387	-272.069	20.4065	-31.0205	-244.127	14.2306	30.1745	-256.762	9.47498	5.40994	-269.836	3.85815	-17.0917	-245.296	-6.9638	50.9574	-254.769	-7.82941	23.2555	-262.003	-5.75134	1.96523	-225.694	20.7868	84.9704	-216.648	23.6822	116.094	-199.931	49.1298	86.4268	
52	0.433333	-150.071	34.7087	87.423	-141.814	43.8186	60.6754	-147.404	52.4059	19.9476	-149.469	50.14	-3.18414	-199.308	44.8386	20.5437	-211.985	45.3393	-3.721	-228.167	45.1924	-28.1271	-221.821	35.9017	14.5285	-228.468	36.1665	-8.97758	-243.243	38.3432	-37.2766	-233.625	22.0829	30.1401	-241.113	23.3384	2.45312	-253.213	22.6551	-24.3807	-238.519	5.42678	45.9889	-245.167	6.6748	18.1262	-255.069	11.4162	-4.67565	-215.962	26.2358	82.0831	-209.815	29.4446	117.851	-184.583	47.6788	85.5054	
53	0.441667	-137.294	22.6352	93.8209	-128.065	31.9208	62.114	-124.591	37.829	26.7015	-124.885	35.6909	4.77664	-178.023	44.7543	21.5431	-187.711	48.4619	-5.72283	-197.605	52.0421	-28.0854	-197.962	42.3863	12.6236	-208.211	43.8711	-14.2225	-219.949	48.4543	-39.7676	-214.276	33.703	24.3492	-224.132	33.4686	1.19237	-228.982	37.8056	-24.8613	-226.236	19.176	44.0468	-230.673	21.2714	16.3188	-236.281	27.143	-5.46024	-208.083	33.6717	86.1774	-200.233	35.2442	114.881	-168.764	44.8333	86.9918	
54	0.45	-132.283	15.4739	94.2211	-119.767	18.7094	69.9278	-110.817	24.9351	34.463	-107.586	23.3922	12.0133	-162.56	42.0105	22.1232	-169.656	48.6757	-7.07926	-176.775	52.9756	-28.0529	-186.048	43.373	15.8442	-189.161	45.843	-15.1798	-196.536	54.0647	-41.9893	-204.867	37.202	25.5255	-211.197	40.4352	-2.09371	-211.032	44.9635	-27.1614	-217.441	27.305	40.0653	-220.106	29.6872	15.4214	-221.233	34.9089	-8.30802	-197.912	38.2562	83.2712	-193.438	35.9023	116.087	-157.93	38.7458	90.428	
55	0.458333	-131.723	7.86993	98.8838	-114.274	11.6935	71.7186	-106.696	14.926	40.2454	-93.747	14.9102	16.583	-152.142	38.7035	26.2491	-156.824	44.8043	-2.99411	-162.62	52.2033	-28.0108	-171.296	43.8277	16.9045	-173.719	47.9156	-13.324	-182.039	55.2502	-37.53	-190.438	40.6927	27.2216	-197.046	45.6421	-3.68249	-196.898	50.1353	-27.2181	-210.665	33.0992	41.1125	-209.341	34.6756	17.5896	-212.969	43.6224	-10.0848	-187.109	39.0861	83.5843	-183.531	39.5866	113.751	-151.522	37.8709	95.6551	
56	0.466667	-129.374	6.36474	99.3236	-111.797	7.52324	74.6056	-100.425	10.7776	41.9569	-91.0201	7.57686	21.7698	-144.905	38.1655	24.6381	-147.332	43.2087	-1.70843	-151.481	50.683	-25.6856	-165.772	45.6104	16.191	-169.896	49.6929	-13.3289	-175.649	58.9969	-40.6538	-186.074	43.1554	27.8027	-190.648	48.4894	-2.9139	-187.443	54.0154	-29.6367	-204.407	35.3945	44.5167	-204.706	38.9452	19.0251	-206.426	48.668	-7.20324	-186.905	44.0415	80.4676	-182.984	43.437	117.325	-147.224	34.912	92.4265	
57	0.475	-132.269	4.71097	102.388	-116.5	5.57085	76.2248	-108.733	8.7686	40.0218	-100.52	6.13373	18.3758	-146.458	38.3845	22.0394	-151.856	45.2241	-2.25308	-154.808	53.0792	-27.9829	-168.28	48.1699	17.5034	-171.709	51.4367	-8.03423	-176.54	62.0448	-40.9147	-186.584	47.2207	23.9452	-189.023	51.6692	-0.444623	-189.953	55.7429	-25.0995	-206.858	40.1975	44.3521	-208.898	45.9323	16.7297	-207.99	54.1285	-3.51432	-186.921	43.9873	83.9387	-177.837	44.7814	115.51	-148.659	37.0752	95.001	
58	0.483333	-131.833	5.61973	99.5852	-122.13	6.06302	71.1652	-114.862	7.64873	38.3746	-111.319	6.83392	11.5689	-155.056	40.0137	24.2918	-161.35	47.1219	-1.04926	-168.665	57.7049	-29.9148	-177.036	49.301	20.1628	-182.101	54.7384	-12.729	-186.709	65.6161	-39.4755	-195.498	50.0462	29.3924	-200.833	54.5195	1.27906	-201.696	58.7476	-22.9396	-214.023	44.3546	46.7319	-214.875	47.5181	21.5062	-216.516	56.0997	-3.93489	-186.396	46.6871	81.9889	-181.688	46.87	117.537	-152.601	39.6333	91.9468	
59	0.491667	-136.396	7.12205	95.1482	-130.174	6.79158	64.6896	-128.045	7.67983	30.8277	-130.632	6.3629	4.22027	-167.68	42.6119	17.7652	-175.091	49.0715	-7.48967	-187.379	56.8582	-25.8522	-191.856	51.7863	17.3009	-197.673	54.7981	-7.83387	-209.801	65.8783	-34.0335	-208.832	52.2312	28.35	-214.788	55.0396	2.26724	-222.41	62.567	-24.2689	-224.117	44.5461	52.4515	-230.724	50.2952	21.8656	-232.731	54.0166	1.98519	-196.338	50.4463	88.6504	-185.492	51.7388	117.321	-154.532	40.9936	88.3277	
